<svg width="50" height="51" viewBox="0 0 50 51" fill="none" xmlns="http://www.w3.org/2000/svg">
<path d="M30.46 14.42H11.71C11.4869 14.416 11.2652 14.4565 11.0579 14.5392C10.8506 14.6218 10.6618 14.7449 10.5026 14.9013C10.3434 15.0577 10.217 15.2443 10.1307 15.4501C10.0444 15.6559 9.99996 15.8768 10 16.1V39.83C9.99999 40.2738 10.1756 40.6996 10.4885 41.0144C10.8014 41.3292 11.2262 41.5074 11.67 41.51H35.44C35.8856 41.51 36.3129 41.333 36.6279 41.0179C36.943 40.7029 37.12 40.2756 37.12 39.83V21.08C35.3537 21.08 33.6597 20.3783 32.4107 19.1293C31.1617 17.8803 30.46 16.1863 30.46 14.42Z" fill="#6F2CFF"/>
<path d="M37.12 7.75001C35.3537 7.75001 33.6597 8.45168 32.4107 9.70068C31.1617 10.9497 30.46 12.6437 30.46 14.41H35.46C35.9056 14.41 36.3329 14.587 36.648 14.9021C36.963 15.2171 37.14 15.6444 37.14 16.09V21.09C38.909 21.0874 40.6045 20.3821 41.8535 19.1293C43.1025 17.8766 43.8027 16.179 43.8 14.41C43.7974 12.641 43.0921 10.9455 41.8394 9.69653C40.5866 8.44754 38.889 7.74736 37.12 7.75001Z" fill="#D15187"/>
<path d="M35.44 14.42H30.44C30.44 16.1863 31.1417 17.8803 32.3907 19.1293C33.6397 20.3783 35.3337 21.08 37.1 21.08V16.08C37.0948 15.6413 36.9183 15.2221 36.6081 14.9119C36.2979 14.6017 35.8786 14.4252 35.44 14.42Z" fill="#A445BB"/>
</svg>
