<svg width="50" height="51" viewBox="0 0 50 51" fill="none" xmlns="http://www.w3.org/2000/svg">
<path d="M25 16.75C28.2971 16.75 30.97 14.0771 30.97 10.78C30.97 7.48286 28.2971 4.81 25 4.81C21.7029 4.81 19.03 7.48286 19.03 10.78C19.03 14.0771 21.7029 16.75 25 16.75Z" fill="#A445BB"/>
<path d="M12.04 24.24C15.3371 24.24 18.01 21.5671 18.01 18.27C18.01 14.9728 15.3371 12.3 12.04 12.3C8.74287 12.3 6.07001 14.9728 6.07001 18.27C6.07001 21.5671 8.74287 24.24 12.04 24.24Z" fill="#6F2CFF"/>
<path d="M12.04 39.2C15.3371 39.2 18.01 36.5271 18.01 33.23C18.01 29.9329 15.3371 27.26 12.04 27.26C8.74287 27.26 6.07001 29.9329 6.07001 33.23C6.07001 36.5271 8.74287 39.2 12.04 39.2Z" fill="#A445BB"/>
<path d="M25 46.69C28.2971 46.69 30.97 44.0171 30.97 40.72C30.97 37.4229 28.2971 34.75 25 34.75C21.7029 34.75 19.03 37.4229 19.03 40.72C19.03 44.0171 21.7029 46.69 25 46.69Z" fill="#6F2CFF"/>
<path d="M37.96 39.2C41.2571 39.2 43.93 36.5271 43.93 33.23C43.93 29.9329 41.2571 27.26 37.96 27.26C34.6629 27.26 31.99 29.9329 31.99 33.23C31.99 36.5271 34.6629 39.2 37.96 39.2Z" fill="#A445BB"/>
<path d="M37.96 24.24C41.2571 24.24 43.93 21.5671 43.93 18.27C43.93 14.9728 41.2571 12.3 37.96 12.3C34.6629 12.3 31.99 14.9728 31.99 18.27C31.99 21.5671 34.6629 24.24 37.96 24.24Z" fill="#6F2CFF"/>
<path d="M25 29.66C27.1594 29.66 28.91 27.9095 28.91 25.75C28.91 23.5906 27.1594 21.84 25 21.84C22.8406 21.84 21.09 23.5906 21.09 25.75C21.09 27.9095 22.8406 29.66 25 29.66Z" fill="#D15187"/>
</svg>
