<svg width="50" height="51" viewBox="0 0 50 51" fill="none" xmlns="http://www.w3.org/2000/svg">
<path d="M14.06 23.42C14.0586 24.9688 14.4399 26.494 15.17 27.86C18.1529 27.7237 20.9686 26.4433 23.0321 24.2849C25.0955 22.1265 26.248 19.256 26.25 16.27C26.2466 15.5994 26.1863 14.9304 26.07 14.27C24.6623 13.8776 23.1828 13.8167 21.7476 14.092C20.3124 14.3674 18.9605 14.9715 17.7979 15.857C16.6354 16.7424 15.6938 17.8852 15.047 19.1957C14.4002 20.5061 14.0658 21.9486 14.07 23.41L14.06 23.42Z" fill="#A445BB"/>
<path d="M23.55 9.74999H24.22C23.1963 8.25688 21.8373 7.0241 20.2518 6.15028C18.6663 5.27646 16.8983 4.78587 15.0892 4.71775C13.2802 4.64963 11.4803 5.00587 9.83354 5.75798C8.18681 6.51008 6.73898 7.63717 5.60588 9.04907C4.47278 10.461 3.68586 12.1185 3.3081 13.889C2.93033 15.6595 2.9722 17.4938 3.43035 19.2452C3.88851 20.9966 4.75023 22.6165 5.94657 23.9752C7.14291 25.3339 8.64066 26.3938 10.32 27.07C9.99846 25.8901 9.83371 24.6729 9.82999 23.45C9.84056 19.8163 11.2901 16.3348 13.8614 13.7672C16.4327 11.1997 19.9163 9.75526 23.55 9.74999Z" fill="#D15187"/>
<path d="M24.22 9.75H23.55C19.9215 9.75523 16.4424 11.1956 13.8719 13.7566C11.3015 16.3177 9.8485 19.7915 9.83002 23.42C9.83374 24.6429 9.99849 25.8601 10.32 27.04C10.9043 29.1824 12.001 31.1505 13.5155 32.7745C15.03 34.3986 16.9168 35.6298 19.0132 36.3621C21.1096 37.0944 23.3527 37.3057 25.549 36.9778C27.7453 36.6499 29.8289 35.7927 31.62 34.48L43.62 46.48C43.8524 46.7114 44.167 46.8414 44.495 46.8414C44.823 46.8414 45.1376 46.7114 45.37 46.48L46.61 45.24C46.8415 45.0076 46.9714 44.693 46.9714 44.365C46.9714 44.037 46.8415 43.7224 46.61 43.49L34.61 31.49C36.0653 29.4945 36.9536 27.1424 37.1808 24.6831C37.4081 22.2237 36.9657 19.7487 35.9008 17.5203C34.8358 15.2919 33.1877 13.3932 31.1314 12.0252C29.075 10.6572 26.6869 9.87108 24.22 9.75ZM23.55 32.94C21.8314 32.9435 20.144 32.4802 18.6681 31.5996C17.1922 30.719 15.9832 29.4541 15.17 27.94C14.4399 26.5741 14.0586 25.0488 14.06 23.5C14.0558 22.0386 14.3902 20.5961 15.037 19.2857C15.6838 17.9752 16.6254 16.8325 17.7879 15.947C18.9505 15.0615 20.3024 14.4574 21.7376 14.182C23.1728 13.9067 24.6523 13.9676 26.06 14.36C28.2811 14.9618 30.2075 16.3509 31.4798 18.2683C32.7522 20.1857 33.2837 22.5004 32.9753 24.7808C32.6668 27.0612 31.5394 29.1516 29.8034 30.662C28.0673 32.1725 25.8412 32.9999 23.54 32.99L23.55 32.94Z" fill="#6F00FF"/>
</svg>
