<svg width="50" height="51" viewBox="0 0 50 51" fill="none" xmlns="http://www.w3.org/2000/svg">
<path d="M37.12 11.64H12.88C11.781 11.64 10.89 12.531 10.89 13.63V37.87C10.89 38.9691 11.781 39.86 12.88 39.86H37.12C38.2191 39.86 39.11 38.9691 39.11 37.87V13.63C39.11 12.531 38.2191 11.64 37.12 11.64Z" fill="#6F2CFF"/>
<path d="M39.11 25.75H43.12" stroke="#6F2CFF" stroke-width="2.78" stroke-miterlimit="10" stroke-linecap="round"/>
<path d="M39.11 32.31H43.12" stroke="#6F2CFF" stroke-width="2.78" stroke-miterlimit="10" stroke-linecap="round"/>
<path d="M39.11 19.19H43.12" stroke="#6F2CFF" stroke-width="2.78" stroke-miterlimit="10" stroke-linecap="round"/>
<path d="M6.88 25.75H10.89" stroke="#6F2CFF" stroke-width="2.78" stroke-miterlimit="10" stroke-linecap="round"/>
<path d="M6.88 32.31H10.89" stroke="#6F2CFF" stroke-width="2.78" stroke-miterlimit="10" stroke-linecap="round"/>
<path d="M6.88 19.19H10.89" stroke="#6F2CFF" stroke-width="2.78" stroke-miterlimit="10" stroke-linecap="round"/>
<path d="M25 11.64V7.63" stroke="#6F2CFF" stroke-width="2.78" stroke-miterlimit="10" stroke-linecap="round"/>
<path d="M31.16 11.64V7.63" stroke="#6F2CFF" stroke-width="2.78" stroke-miterlimit="10" stroke-linecap="round"/>
<path d="M18.84 11.64V7.63" stroke="#6F2CFF" stroke-width="2.78" stroke-miterlimit="10" stroke-linecap="round"/>
<path d="M25 43.87V39.86" stroke="#6F2CFF" stroke-width="2.78" stroke-miterlimit="10" stroke-linecap="round"/>
<path d="M31.16 43.87V39.86" stroke="#6F2CFF" stroke-width="2.78" stroke-miterlimit="10" stroke-linecap="round"/>
<path d="M18.84 43.87V39.86" stroke="#6F2CFF" stroke-width="2.78" stroke-miterlimit="10" stroke-linecap="round"/>
<path d="M26.88 23.86H23.11V27.63H26.88V23.86Z" fill="#D15187"/>
<path d="M33.04 23.86H29.27V27.63H33.04V23.86Z" fill="#D15187"/>
<path d="M20.72 23.86H16.95V27.63H20.72V23.86Z" fill="#D15187"/>
<path d="M26.88 17.31H23.11V21.08H26.88V17.31Z" fill="#D15187"/>
<path d="M33.04 17.31H29.27V21.08H33.04V17.31Z" fill="#D15187"/>
<path d="M20.72 17.31H16.95V21.08H20.72V17.31Z" fill="#D15187"/>
<path d="M26.88 30.42H23.11V34.19H26.88V30.42Z" fill="#D15187"/>
<path d="M33.04 30.42H29.27V34.19H33.04V30.42Z" fill="#D15187"/>
<path d="M20.72 30.42H16.95V34.19H20.72V30.42Z" fill="#D15187"/>
</svg>
