<svg width="50" height="51" viewBox="0 0 50 51" fill="none" xmlns="http://www.w3.org/2000/svg">
<path d="M26.23 14.58L41.37 22.58L43 21.75C43.4225 21.5249 43.7758 21.1892 44.0222 20.7788C44.2686 20.3684 44.3987 19.8987 44.3987 19.42C44.3987 18.9413 44.2686 18.4716 44.0222 18.0612C43.7758 17.6508 43.4225 17.3151 43 17.09L26.23 8.26C25.85 8.06277 25.4281 7.95981 25 7.95981C24.5719 7.95981 24.15 8.06277 23.77 8.26L7.05 17.1C6.62751 17.3251 6.27417 17.6608 6.02779 18.0712C5.7814 18.4816 5.65125 18.9513 5.65125 19.43C5.65125 19.9087 5.7814 20.3784 6.02779 20.7888C6.27417 21.1992 6.62751 21.5349 7.05 21.76L8.63 22.59L23.77 14.59C24.1492 14.3912 24.5706 14.2865 24.9988 14.2848C25.4269 14.2831 25.8492 14.3843 26.23 14.58Z" fill="#6F2CFF"/>
<path d="M23.77 36.92L8.63 28.92L7.05 29.75C6.62751 29.9751 6.27417 30.3108 6.02779 30.7212C5.7814 31.1316 5.65125 31.6013 5.65125 32.08C5.65125 32.5587 5.7814 33.0284 6.02779 33.4388C6.27417 33.8492 6.62751 34.1849 7.05 34.41L23.77 43.25C24.15 43.4472 24.5719 43.5502 25 43.5502C25.4281 43.5502 25.85 43.4472 26.23 43.25L43 34.4C43.42 34.1741 43.771 33.8386 44.0156 33.4293C44.2602 33.0199 44.3894 32.5519 44.3894 32.075C44.3894 31.5981 44.2602 31.1301 44.0156 30.7208C43.771 30.3114 43.42 29.9759 43 29.75L41.42 28.92L26.28 36.92C25.8937 37.1257 25.4627 37.2333 25.025 37.2333C24.5873 37.2333 24.1563 37.1257 23.77 36.92Z" fill="#6F2CFF"/>
<path d="M43 23.42L41.42 22.59L35.42 25.75L26.26 30.59C25.8816 30.7922 25.4591 30.898 25.03 30.898C24.6009 30.898 24.1785 30.7922 23.8 30.59L14.61 25.75L8.61001 22.59L7.03001 23.42C6.60752 23.6451 6.25418 23.9808 6.0078 24.3912C5.76141 24.8016 5.63126 25.2713 5.63126 25.75C5.63126 26.2287 5.76141 26.6984 6.0078 27.1088C6.25418 27.5192 6.60752 27.8549 7.03001 28.08L8.61001 28.91L23.75 36.91C24.13 37.1072 24.5519 37.2102 24.98 37.2102C25.4081 37.2102 25.83 37.1072 26.21 36.91L41.35 28.91L43 28.08C43.4225 27.8549 43.7758 27.5192 44.0222 27.1088C44.2686 26.6984 44.3988 26.2287 44.3988 25.75C44.3988 25.2713 44.2686 24.8016 44.0222 24.3912C43.7758 23.9808 43.4225 23.6451 43 23.42Z" fill="#D15187"/>
<path d="M26.23 14.58C25.85 14.3828 25.4281 14.2798 25 14.2798C24.5719 14.2798 24.15 14.3828 23.77 14.58L8.63 22.58L14.63 25.74L23.79 30.58C24.1685 30.7822 24.5909 30.888 25.02 30.888C25.4491 30.888 25.8716 30.7822 26.25 30.58L35.39 25.75L41.39 22.59L26.23 14.58Z" fill="#A445BB"/>
</svg>
